<svg width="90" height="42" viewBox="0 0 90 42" fill="none" xmlns="http://www.w3.org/2000/svg">
    <g filter="url(#filter0_di_0_1)">
        <path d="M37 19C37 27.8366 29.857 35 21.0457 35C12.2343 35 5.09131 27.8366 5.09131 19C5.09131 10.1634 12.2343 3 21.0457 3C29.857 3 37 10.1634 37 19Z" fill="#88FD9D"/>
        <path d="M10.3221 10.8835L10.0503 11.7531C9.43432 13.9734 8.80762 16.1134 8.80762 18.4079C8.80762 25.4278 13.7152 31.3753 20.8911 32.697C20.9642 32.7105 21.0786 32.7303 21.0786 32.7303C21.0786 32.7303 21.1789 32.713 21.2457 32.7009L21.2498 32.7001C28.433 31.3905 33.3496 25.4482 33.3496 18.4079C33.3496 15.785 32.7023 13.3066 31.8128 10.8638C30.4303 11.2751 29.0597 11.7097 27.7346 12.2863C28.0058 13.1133 28.0388 13.4441 28.1377 14.2058C28.901 13.8584 29.7266 13.5329 30.6177 13.2361C32.3642 18.8111 31.2704 25.0726 26.1986 28.5244C24.6634 29.5692 22.9022 30.3635 21.0866 30.7743C15.2971 29.3655 10.7208 24.6137 10.7208 18.4079C10.7208 16.6606 11.1594 14.9054 11.6171 13.2267C12.3765 13.4678 13.1534 13.7689 13.9205 14.1184C13.9205 13.4441 13.9205 12.8486 14.1423 12.1208C12.9018 11.5942 11.6231 11.2199 10.3221 10.8835Z" fill="#011837"/>
        <path fill-rule="evenodd" clip-rule="evenodd" d="M27.5764 20.6882C27.5764 17.1736 24.4156 16.5031 21.72 15.9313C19.7163 15.5063 17.9697 15.1358 17.9697 13.6921C17.9697 12.4787 18.9439 11.6997 20.8023 11.6997C23.0204 11.6997 23.7847 12.7783 24.0245 14.2314H27.0819C26.8091 11.5043 25.2433 9.78244 22.6307 9.26954V6.86084H19.6333V9.18354C16.7712 9.54784 14.9723 11.2138 14.9723 13.6921C14.9723 17.241 18.1688 17.978 20.877 18.6023C22.8674 19.0611 24.594 19.4592 24.594 20.868C24.594 22.1264 23.38 22.9653 21.3268 22.9653C18.6441 22.9653 17.7599 21.7818 17.4302 20.1489H14.4478C14.6409 23.136 16.4836 25.0054 19.6333 25.4719V27.8342H22.6307V25.5035C25.7047 25.1063 27.5764 23.3189 27.5764 20.6882Z" fill="#011837"/>
    </g>
    <g filter="url(#filter1_di_0_1)">
        <path d="M53.0001 19.0091C53.0001 27.8407 45.8515 35.0001 37.0333 35.0001C28.215 35.0001 21.0664 27.8407 21.0664 19.0091C21.0664 10.1775 28.215 3.01807 37.0333 3.01807C45.8515 3.01807 53.0001 10.1775 53.0001 19.0091Z" fill="#88FD9D"/>
        <path d="M47.4302 18.4353C47.4302 16.6351 47.1247 14.9053 46.6113 13.2688C46.1402 13.4255 45.6874 13.5902 45.2524 13.7619C45.0545 13.0983 44.7905 12.6357 44.3615 12.0863C45.4881 11.6322 46.6447 11.2442 47.8067 10.8989C48.6965 13.3392 49.344 15.815 49.344 18.4353C49.344 24.4655 46.2934 28.0693 43.2655 30.1272C41.4868 31.3361 38.2571 32.7281 37.0692 32.7281C35.8813 32.7281 32.6457 31.2719 30.8681 30.0477C27.8498 27.9692 24.7944 24.3687 24.7944 18.4352C24.7944 16.2013 25.5863 13.0983 26.3094 10.9186L27.1897 11.1459C28.9633 11.604 30.7706 12.3049 32.4497 13.232L31.9641 15.1472C30.554 14.3395 29.0382 13.7139 27.6049 13.2594C27.1469 14.9364 26.7082 16.6897 26.7082 18.4352C26.7082 23.5831 29.3118 26.6499 31.9525 28.4683C33.4926 29.5289 35.2553 30.3461 37.0773 30.7888C38.8934 30.3784 40.6551 29.5849 42.1908 28.5412C44.8219 26.753 47.4302 23.6895 47.4302 18.4353Z" fill="#011837"/>
        <path d="M44.2551 15.2814C44.5777 13.0782 42.9354 11.8938 40.6898 11.1038L41.4183 8.11925L39.6396 7.66655L38.9304 10.5725C38.4628 10.4534 37.9826 10.3411 37.5053 10.2299L38.2196 7.30465L36.442 6.85205L35.7131 9.83555C35.3262 9.74555 34.9461 9.65665 34.5774 9.56295L34.5794 9.55355L32.1266 8.92785L31.6534 10.8684C31.6534 10.8684 32.973 11.1773 32.9452 11.1963C33.6655 11.38 33.7958 11.867 33.7741 12.253L32.9443 15.653C32.9939 15.6659 33.0582 15.6844 33.1292 15.7136C33.0699 15.6985 33.0067 15.6822 32.9412 15.6662L31.778 20.4291C31.69 20.6527 31.4666 20.9881 30.963 20.8607C30.9808 20.8871 29.6702 20.5312 29.6702 20.5312L28.7871 22.6108L31.1018 23.2001C31.5324 23.3104 31.9544 23.4259 32.3699 23.5344L31.6339 26.5531L33.4105 27.0057L34.1395 24.0191C34.6248 24.1537 35.0958 24.2779 35.557 24.3949L34.8305 27.3675L36.6093 27.8202L37.3452 24.807C40.3783 25.3933 42.6589 25.157 43.6189 22.3549C44.3924 20.0989 43.5804 18.7975 41.9847 17.9489C43.1469 17.6752 44.0217 16.8942 44.2551 15.2814ZM40.1912 21.1019C39.6415 23.358 35.9226 22.1385 34.7169 21.8327L35.6936 17.8334C36.8993 18.1408 40.7656 18.7491 40.1912 21.1019ZM40.7413 15.2486C40.2398 17.3007 37.1446 16.2583 36.1405 16.0026L37.026 12.3755C38.0301 12.6311 41.2635 13.1082 40.7413 15.2486Z" fill="#011837"/>
    </g>
    <g filter="url(#filter2_di_0_1)">
        <path d="M68.9999 18.9991C68.9999 27.8351 61.8569 34.9982 53.0456 34.9982C44.2343 34.9982 37.0913 27.8351 37.0913 18.9991C37.0913 10.163 44.2343 3 53.0456 3C61.8569 3 68.9999 10.163 68.9999 18.9991Z" fill="#88FD9D"/>
        <path d="M63.3875 18.4293C63.3875 16.6282 63.0822 14.8976 62.5692 13.2602C62.0985 13.417 61.6461 13.5818 61.2114 13.7536C60.556 14.0127 59.941 14.2878 59.365 14.5753L58.3759 12.95C59.0107 12.6331 59.6608 12.3438 60.3212 12.0772C61.4469 11.6228 62.6026 11.2346 63.7637 10.8892C64.6528 13.3307 65.2998 15.8077 65.2998 18.4293C65.2998 24.4626 62.2516 28.0682 59.2261 30.1271C57.4488 31.3367 54.2216 32.7293 53.0347 32.7293C51.8477 32.7293 48.6146 31.2724 46.8384 30.0477C43.8225 27.9681 40.7695 24.3658 40.7695 18.4293C40.7695 16.1942 41.5608 13.0897 42.2834 10.9089L43.1629 11.1363C44.727 11.5408 46.3173 12.1345 47.8227 12.906L46.8361 14.5557C45.756 14.0228 44.6441 13.5893 43.5778 13.2508C43.1202 14.9286 42.6819 16.6829 42.6818 18.4293C42.6818 23.5797 45.2834 26.6481 47.9219 28.4675C49.4609 29.5286 51.2222 30.3461 53.0427 30.7891C54.8574 30.3785 56.6178 29.5846 58.1522 28.5404C60.7812 26.7512 63.3875 23.6862 63.3875 18.4293Z" fill="#011837"/>
        <path d="M53.0831 6.19434L52.9336 6.70364V21.4802L53.0831 21.6298L59.9229 17.5754L53.0831 6.19434Z" fill="#011837"/>
        <path d="M53.0831 6.19434L46.2432 17.5754L53.0831 21.6298V14.4576V6.19434Z" fill="#011837"/>
        <path d="M53.0838 22.9283L52.9995 23.0313V28.295L53.0838 28.5417L59.9278 18.876L53.0838 22.9283Z" fill="#011837"/>
        <path d="M53.0831 28.5417V22.9283L46.2432 18.876L53.0831 28.5417Z" fill="#011837"/>
        <path d="M53.084 21.6297L59.9238 17.5753L53.084 14.4575V21.6297Z" fill="#011837"/>
        <path d="M46.2432 17.5753L53.0831 21.6297V14.4575L46.2432 17.5753Z" fill="#011837"/>
    </g>
    <g filter="url(#filter3_di_0_1)">
        <path d="M69 35C77.8366 35 85 27.8366 85 19C85 10.1634 77.8366 3 69 3C60.1634 3 53 10.1634 53 19C53 27.8366 60.1634 35 69 35Z" fill="#356DF3"/>
        <path d="M69.0273 14.3078C71.9187 14.3078 73.8582 16.1917 73.8584 18.9982C73.8584 21.3127 72.4587 23.0447 70.333 23.5441V26.2775L76.3818 22.8918V20.3693H78.9961V22.0529C78.956 24.1561 77.9975 24.8749 76.9766 25.4836L70.3291 29.008C69.516 29.4418 68.5385 29.4421 67.7217 29.0119L61.002 25.4719C59.9883 24.8631 59.0438 24.1415 59 22.0529V20.3693H61.6182V22.8918L67.7217 26.2814V23.5441C65.5924 23.0447 64.1963 21.3164 64.1963 18.9982C64.1964 16.1917 66.136 14.3078 69.0273 14.3078ZM69.0273 16.6145C67.4778 16.6145 66.6242 17.4602 66.624 18.9982C66.624 20.4927 67.5214 21.382 69.0273 21.382C70.5333 21.382 71.4307 20.489 71.4307 18.9982C71.4305 17.4602 70.5769 16.6145 69.0273 16.6145ZM67.7217 8.98947C68.5385 8.55937 69.5124 8.55867 70.3291 8.99237L76.9795 12.5178C78.0004 13.1301 78.9562 13.8444 79 15.9475V17.635H76.3857V15.3283L69.0273 11.3772L61.6143 15.3283V17.635H59V15.9475C59.0402 13.8553 59.9883 13.1372 61.002 12.5285L67.7217 8.98947Z" fill="white"/>
    </g>
    <defs>
        <filter id="filter0_di_0_1" x="0.0913086" y="0" width="41.9087" height="42" filterUnits="userSpaceOnUse" color-interpolation-filters="sRGB">
            <feFlood flood-opacity="0" result="BackgroundImageFix"/>
            <feColorMatrix in="SourceAlpha" type="matrix" values="0 0 0 0 0 0 0 0 0 0 0 0 0 0 0 0 0 0 127 0" result="hardAlpha"/>
            <feOffset dy="2"/>
            <feGaussianBlur stdDeviation="2.5"/>
            <feComposite in2="hardAlpha" operator="out"/>
            <feColorMatrix type="matrix" values="0 0 0 0 0.121569 0 0 0 0 0.133333 0 0 0 0 0.14902 0 0 0 0.1 0"/>
            <feBlend mode="normal" in2="BackgroundImageFix" result="effect1_dropShadow_0_1"/>
            <feBlend mode="normal" in="SourceGraphic" in2="effect1_dropShadow_0_1" result="shape"/>
            <feColorMatrix in="SourceAlpha" type="matrix" values="0 0 0 0 0 0 0 0 0 0 0 0 0 0 0 0 0 0 127 0" result="hardAlpha"/>
            <feOffset dy="3"/>
            <feGaussianBlur stdDeviation="7.5"/>
            <feComposite in2="hardAlpha" operator="arithmetic" k2="-1" k3="1"/>
            <feColorMatrix type="matrix" values="0 0 0 0 0.121569 0 0 0 0 0.133333 0 0 0 0 0.14902 0 0 0 0.1 0"/>
            <feBlend mode="normal" in2="shape" result="effect2_innerShadow_0_1"/>
        </filter>
        <filter id="filter1_di_0_1" x="16.0664" y="0.0180664" width="41.9336" height="41.9819" filterUnits="userSpaceOnUse" color-interpolation-filters="sRGB">
            <feFlood flood-opacity="0" result="BackgroundImageFix"/>
            <feColorMatrix in="SourceAlpha" type="matrix" values="0 0 0 0 0 0 0 0 0 0 0 0 0 0 0 0 0 0 127 0" result="hardAlpha"/>
            <feOffset dy="2"/>
            <feGaussianBlur stdDeviation="2.5"/>
            <feComposite in2="hardAlpha" operator="out"/>
            <feColorMatrix type="matrix" values="0 0 0 0 0.121569 0 0 0 0 0.133333 0 0 0 0 0.14902 0 0 0 0.1 0"/>
            <feBlend mode="normal" in2="BackgroundImageFix" result="effect1_dropShadow_0_1"/>
            <feBlend mode="normal" in="SourceGraphic" in2="effect1_dropShadow_0_1" result="shape"/>
            <feColorMatrix in="SourceAlpha" type="matrix" values="0 0 0 0 0 0 0 0 0 0 0 0 0 0 0 0 0 0 127 0" result="hardAlpha"/>
            <feOffset dy="3"/>
            <feGaussianBlur stdDeviation="7.5"/>
            <feComposite in2="hardAlpha" operator="arithmetic" k2="-1" k3="1"/>
            <feColorMatrix type="matrix" values="0 0 0 0 0.121569 0 0 0 0 0.133333 0 0 0 0 0.14902 0 0 0 0.1 0"/>
            <feBlend mode="normal" in2="shape" result="effect2_innerShadow_0_1"/>
        </filter>
        <filter id="filter2_di_0_1" x="32.0913" y="0" width="41.9087" height="41.998" filterUnits="userSpaceOnUse" color-interpolation-filters="sRGB">
            <feFlood flood-opacity="0" result="BackgroundImageFix"/>
            <feColorMatrix in="SourceAlpha" type="matrix" values="0 0 0 0 0 0 0 0 0 0 0 0 0 0 0 0 0 0 127 0" result="hardAlpha"/>
            <feOffset dy="2"/>
            <feGaussianBlur stdDeviation="2.5"/>
            <feComposite in2="hardAlpha" operator="out"/>
            <feColorMatrix type="matrix" values="0 0 0 0 0.121569 0 0 0 0 0.133333 0 0 0 0 0.14902 0 0 0 0.1 0"/>
            <feBlend mode="normal" in2="BackgroundImageFix" result="effect1_dropShadow_0_1"/>
            <feBlend mode="normal" in="SourceGraphic" in2="effect1_dropShadow_0_1" result="shape"/>
            <feColorMatrix in="SourceAlpha" type="matrix" values="0 0 0 0 0 0 0 0 0 0 0 0 0 0 0 0 0 0 127 0" result="hardAlpha"/>
            <feOffset dy="3"/>
            <feGaussianBlur stdDeviation="7.5"/>
            <feComposite in2="hardAlpha" operator="arithmetic" k2="-1" k3="1"/>
            <feColorMatrix type="matrix" values="0 0 0 0 0.121569 0 0 0 0 0.133333 0 0 0 0 0.14902 0 0 0 0.1 0"/>
            <feBlend mode="normal" in2="shape" result="effect2_innerShadow_0_1"/>
        </filter>
        <filter id="filter3_di_0_1" x="48" y="0" width="42" height="42" filterUnits="userSpaceOnUse" color-interpolation-filters="sRGB">
            <feFlood flood-opacity="0" result="BackgroundImageFix"/>
            <feColorMatrix in="SourceAlpha" type="matrix" values="0 0 0 0 0 0 0 0 0 0 0 0 0 0 0 0 0 0 127 0" result="hardAlpha"/>
            <feOffset dy="2"/>
            <feGaussianBlur stdDeviation="2.5"/>
            <feComposite in2="hardAlpha" operator="out"/>
            <feColorMatrix type="matrix" values="0 0 0 0 0.121569 0 0 0 0 0.133333 0 0 0 0 0.14902 0 0 0 0.1 0"/>
            <feBlend mode="normal" in2="BackgroundImageFix" result="effect1_dropShadow_0_1"/>
            <feBlend mode="normal" in="SourceGraphic" in2="effect1_dropShadow_0_1" result="shape"/>
            <feColorMatrix in="SourceAlpha" type="matrix" values="0 0 0 0 0 0 0 0 0 0 0 0 0 0 0 0 0 0 127 0" result="hardAlpha"/>
            <feOffset dy="3"/>
            <feGaussianBlur stdDeviation="7.5"/>
            <feComposite in2="hardAlpha" operator="arithmetic" k2="-1" k3="1"/>
            <feColorMatrix type="matrix" values="0 0 0 0 0.121569 0 0 0 0 0.133333 0 0 0 0 0.14902 0 0 0 0.1 0"/>
            <feBlend mode="normal" in2="shape" result="effect2_innerShadow_0_1"/>
        </filter>
    </defs>
</svg>
