<svg xmlns="http://www.w3.org/2000/svg" width="24" height="24" viewBox="0 0 24 24" fill="none">
    <rect width="24" height="24" rx="12" fill="#011837"/>
    <mask id="mask0_1245_592" style="mask-type:alpha" maskUnits="userSpaceOnUse" x="0" y="0" width="24" height="24">
        <rect width="24" height="24" rx="12" fill="#011936"/>
    </mask>
    <g mask="url(#mask0_1245_592)">
        <path d="M12.011 19.7151C12.011 19.7151 4.70951 18.2534 4.70951 11.0644C4.70951 9.42465 5.4833 6.9375 5.4833 6.9375C7.93532 7.57433 10.785 9.23588 12.011 11.0076C13.1875 9.48009 15.2879 7.9143 18.5573 6.9375C19.0222 8.21952 19.3125 9.60455 19.3125 11.0644C19.3125 18.3852 12.011 19.7151 12.011 19.7151Z" fill="#88FD9D"/>
        <path d="M11.9411 20.0628L12.0075 20.0761L12.0741 20.064L12.0106 19.7156L11.9411 20.0628ZM5.06327 11.0648C5.06327 10.2879 5.24848 9.28934 5.44085 8.46717C5.53615 8.0599 5.63152 7.70287 5.70302 7.44779C5.7104 7.42148 5.71754 7.39626 5.72438 7.3722C6.81969 7.69373 7.9818 8.21393 9.02182 8.84961C10.1709 9.55196 11.1449 10.3794 11.7194 11.2095L11.9953 11.6083L12.2912 11.2241C13.3769 9.81446 15.3107 8.34035 18.3349 7.37709C18.7224 8.5357 18.958 9.77161 18.958 11.0648C18.958 14.583 17.2133 16.6458 15.4615 17.8431C14.5811 18.4448 13.6984 18.8272 13.0347 19.059C12.7034 19.1747 12.4282 19.2524 12.2373 19.3008C12.1418 19.3251 12.0676 19.342 12.018 19.3527C12.0165 19.353 12.0151 19.3532 12.0137 19.3535C12.0121 19.3532 12.0106 19.3529 12.009 19.3525C11.9593 19.3409 11.8849 19.3227 11.7894 19.2968C11.5982 19.2451 11.3226 19.1629 10.991 19.0421C10.3266 18.8 9.44293 18.4053 8.56151 17.7949C6.80625 16.5794 5.06327 14.5153 5.06327 11.0648ZM4.35498 11.0648C4.35498 14.8033 6.26277 17.0646 8.15826 18.3772C9.1022 19.0309 10.0439 19.4509 10.7485 19.7076C11.1014 19.8362 11.3963 19.9243 11.6044 19.9806C11.7085 20.0087 11.791 20.0289 11.8482 20.0423C11.8769 20.049 11.8993 20.0539 11.9149 20.0573C11.9227 20.059 11.9288 20.0603 11.9332 20.0612C11.9354 20.0617 11.9372 20.062 11.9385 20.0623C11.9391 20.0624 11.9397 20.0626 11.9401 20.0626C11.9404 20.0627 11.9406 20.0627 11.9407 20.0628C11.9409 20.0627 11.9424 20.0565 12.0106 19.7156C12.0741 20.064 12.0743 20.064 12.0745 20.0639C12.0746 20.0639 12.0749 20.0638 12.0751 20.0638C12.0755 20.0637 12.0761 20.0636 12.0768 20.0635C12.0781 20.0632 12.0799 20.0629 12.0821 20.0625C12.0865 20.0616 12.0926 20.0605 12.1005 20.0589C12.1161 20.0558 12.1386 20.0512 12.1673 20.045C12.2247 20.0327 12.3073 20.0138 12.4115 19.9874C12.6198 19.9345 12.915 19.8511 13.2682 19.7277C13.9736 19.4814 14.9163 19.0737 15.8612 18.4279C17.7602 17.13 19.6663 14.8675 19.6663 11.0648C19.6663 9.5576 19.3664 8.1316 18.8898 6.81722L18.7758 6.50293L18.4555 6.59861C15.3757 7.51876 13.2894 8.96024 12.0212 10.4346C11.3656 9.63178 10.4278 8.87883 9.39123 8.24525C8.19221 7.51238 6.83476 6.92316 5.57192 6.59518L5.24507 6.51029L5.14476 6.83275L5.48291 6.93795C5.15014 6.83442 5.14482 6.83281 5.14473 6.83283C5.14472 6.83286 5.1447 6.83292 5.14469 6.83298C5.14465 6.8331 5.14459 6.83325 5.14453 6.83344C5.14441 6.83383 5.14424 6.83438 5.14403 6.83506C5.14361 6.83643 5.143 6.83839 5.14222 6.84092C5.14065 6.84602 5.13838 6.85347 5.13544 6.86313C5.12955 6.88246 5.121 6.91076 5.11019 6.94716C5.08856 7.01995 5.05783 7.12527 5.02102 7.25659C4.94744 7.51909 4.84933 7.88633 4.75118 8.30581C4.55667 9.13714 4.35498 10.202 4.35498 11.0648Z" fill="#88FD9D"/>
        <path d="M18.7219 6.31702C18.7219 6.31702 20.8683 11.2005 18.9933 14.982C17.1183 18.7635 11.9318 20.011 11.9318 20.011C11.9318 20.011 9.78534 15.1275 11.6604 11.346C13.5354 7.56453 18.7219 6.31702 18.7219 6.31702Z" fill="#011837"/>
        <path d="M17.8174 14.399C18.5733 12.8745 18.5501 11.0389 18.2687 9.46204C18.1666 8.89012 18.0347 8.37582 17.9093 7.95571C17.4991 8.11022 17.0099 8.31657 16.4928 8.58152C15.0673 9.31202 13.5922 10.4046 12.8363 11.9291C12.0803 13.4536 12.1036 15.2891 12.385 16.866C12.4871 17.4379 12.619 17.9522 12.7443 18.3723C13.1546 18.2178 13.6438 18.0115 14.1609 17.7465C15.5863 17.016 17.0615 15.9235 17.8174 14.399ZM18.9712 15.0262C17.0778 18.7733 11.9318 20.011 11.9318 20.011L11.9081 19.9553C11.6801 19.4072 9.91732 14.9287 11.6386 11.3904L11.6604 11.346C13.5336 7.56813 18.712 6.31938 18.7219 6.31701C18.7219 6.31701 20.8683 11.2005 18.9933 14.982L18.9712 15.0262Z" fill="#88FD9D"/>
    </g>
</svg>
