<svg width="24" height="24" viewBox="0 0 24 24" fill="none" xmlns="http://www.w3.org/2000/svg">
    <path d="M24.0002 12C24.0002 18.6274 18.6429 24 12.0344 24C5.42586 24 0.0686035 18.6274 0.0686035 12C0.0686035 5.37258 5.42586 0 12.0344 0C18.6429 0 24.0002 5.37258 24.0002 12Z" fill="#88FD9D"/>
    <path d="M3.99182 5.91224L3.788 6.56449C3.32596 8.22967 2.85591 9.83468 2.85591 11.5556C2.85591 16.8205 6.53667 21.2811 11.9186 22.2724C11.9734 22.2825 12.0592 22.2974 12.0592 22.2974C12.0592 22.2974 12.1344 22.2844 12.1845 22.2753C12.1856 22.2751 12.1866 22.2749 12.1876 22.2747C17.575 21.2925 21.2625 16.8358 21.2625 11.5556C21.2624 9.58836 20.777 7.72956 20.1098 5.89746C19.073 6.20594 18.045 6.53193 17.0512 6.96432C17.2546 7.58459 17.2793 7.8327 17.3535 8.404C17.926 8.14345 18.5452 7.89931 19.2135 7.67671C20.5234 11.858 19.7031 16.5541 15.8992 19.1429C14.7478 19.9265 13.4269 20.5222 12.0652 20.8304C7.72305 19.7737 4.29082 16.2099 4.29082 11.5556C4.29083 10.2451 4.61976 8.92868 4.9631 7.66963C5.53264 7.85047 6.11528 8.07631 6.6906 8.33841C6.6906 7.8327 6.6906 7.38611 6.85695 6.84027C5.9266 6.44532 4.96761 6.16457 3.99182 5.91224Z" fill="#011837"/>
    <path fill-rule="evenodd" clip-rule="evenodd" d="M16.9324 13.266C16.9324 10.6301 14.5618 10.1272 12.5401 9.69837C11.0374 9.37958 9.72741 9.1017 9.72741 8.01898C9.72741 7.10889 10.458 6.52462 11.8518 6.52462C13.5154 6.52462 14.0887 7.3336 14.2685 8.42346H16.5615C16.3569 6.37811 15.1826 5.08668 13.2232 4.70197V2.89551H10.9751V4.63748C8.82853 4.91074 7.47935 6.16026 7.47935 8.01898C7.47935 10.6807 9.87674 11.2333 11.9079 11.7016C13.4007 12.0457 14.6956 12.3442 14.6956 13.4009C14.6956 14.3447 13.7852 14.9739 12.2452 14.9739C10.2332 14.9739 9.57003 14.0863 9.32277 12.8616H7.08594C7.23083 15.1019 8.61283 16.5039 10.9751 16.8538V18.6255H13.2232V16.8775C15.5286 16.5796 16.9324 15.239 16.9324 13.266Z" fill="#011837"/>
</svg>
