<svg width="24" height="24" viewBox="0 0 32 32" fill="none" xmlns="http://www.w3.org/2000/svg">
    <path d="M16 32C24.8366 32 32 24.8366 32 16C32 7.1634 24.8366 0 16 0C7.1634 0 0 7.1634 0 16C0 24.8366 7.1634 32 16 32Z" fill="#356DF3"/>
    <path d="M16.0273 11.3078C18.9187 11.3078 20.8582 13.1917 20.8584 15.9982C20.8584 18.3127 19.4587 20.0447 17.333 20.5441V23.2775L23.3818 19.8918V17.3693H25.9961V19.0529C25.956 21.1561 24.9975 21.8749 23.9766 22.4836L17.3291 26.008C16.516 26.4418 15.5385 26.4421 14.7217 26.0119L8.002 22.4719C6.9883 21.8631 6.0438 21.1415 6 19.0529V17.3693H8.6182V19.8918L14.7217 23.2814V20.5441C12.5924 20.0447 11.1963 18.3164 11.1963 15.9982C11.1964 13.1917 13.136 11.3078 16.0273 11.3078ZM16.0273 13.6145C14.4778 13.6145 13.6242 14.4602 13.624 15.9982C13.624 17.4927 14.5214 18.382 16.0273 18.382C17.5333 18.382 18.4307 17.489 18.4307 15.9982C18.4305 14.4602 17.5769 13.6145 16.0273 13.6145ZM14.7217 5.98947C15.5385 5.55937 16.5124 5.55867 17.3291 5.99237L23.9795 9.51777C25.0004 10.1301 25.9562 10.8444 26 12.9475V14.635H23.3857V12.3283L16.0273 8.37717L8.6143 12.3283V14.635H6V12.9475C6.0402 10.8553 6.9883 10.1372 8.002 9.52847L14.7217 5.98947Z" fill="white"/>
</svg>
