<svg width="20" height="20" viewBox="0 0 20 20" fill="none" xmlns="http://www.w3.org/2000/svg">
    <path d="M0.0966833 0.131793C0.0966833 0.131793 -0.531188 5.27357 1.41314 9.59997C3.34191 8.46672 6.159 7.72512 8.03106 8.06618C7.81162 6.37756 8.14511 4.08816 9.57636 1.43674C5.20547 -0.608289 0.118027 0.128689 0.0966833 0.131793ZM1.44789 1.45839C1.90914 1.43654 2.486 1.42656 3.13863 1.45164C4.46686 1.5027 6.0578 1.69817 7.61255 2.20552C6.9437 3.77983 6.61574 5.24789 6.5469 6.55939C5.83352 6.59723 5.10468 6.71489 4.40648 6.88326C3.66043 7.06317 2.90894 7.31028 2.1968 7.60937C1.72018 6.07639 1.52337 4.49948 1.46098 3.17573C1.42975 2.51307 1.43272 1.9267 1.44789 1.45839Z" fill="#87FE9A"/>
    <path d="M17.1028 17.2903L17.2171 17.2141L17.2951 17.1012L16.7044 16.6926L17.1028 17.2903ZM5.41372 15.1864C4.86896 14.6416 4.28476 13.7948 3.82141 13.0484C3.66261 12.7926 3.52188 12.5543 3.40567 12.3528C4.35567 11.8698 5.44837 11.4677 6.53869 11.2046C7.88216 10.8805 9.16179 10.7818 10.1353 10.959L11.1033 11.1352L10.9767 10.1596C10.7558 8.45842 11.046 6.1206 12.4087 3.35936C13.4099 3.89159 14.3578 4.56117 15.1984 5.40174C17.7016 7.90498 17.9238 10.5958 17.5299 12.6908C17.3309 13.7493 16.9727 14.6555 16.6627 15.2983C16.5082 15.6186 16.3671 15.8706 16.2662 16.0401C16.2366 16.0899 16.2097 16.1319 16.1878 16.1669C16.152 16.1885 16.1089 16.2152 16.0578 16.2445C15.8856 16.3434 15.6297 16.4816 15.3051 16.6329C14.6539 16.9363 13.7372 17.2868 12.6706 17.4806C10.5558 17.8648 7.8657 17.6384 5.41372 15.1864ZM4.39769 16.2024C7.26282 19.0676 10.4721 19.3404 12.9274 18.8943C14.1458 18.673 15.1818 18.2757 15.912 17.9354C16.2781 17.7648 16.5702 17.6071 16.7732 17.4905C16.8748 17.4322 16.9543 17.3842 17.0098 17.3496C17.0375 17.3324 17.0595 17.3186 17.075 17.3086C17.0827 17.3036 17.0889 17.2995 17.0935 17.2965C17.0958 17.2949 17.0979 17.2935 17.0995 17.2925C17.1002 17.292 17.1009 17.2917 17.1014 17.2913L17.102 17.2907L16.7044 16.6926L17.2957 17.1006C17.2958 17.1004 17.2959 17.1001 17.2961 17.0998C17.2965 17.0992 17.2972 17.0986 17.2977 17.0978C17.2987 17.0963 17.2999 17.0943 17.3015 17.0921C17.3046 17.0874 17.309 17.0811 17.3142 17.0734C17.3245 17.058 17.3388 17.0363 17.3564 17.0089C17.3919 16.954 17.4412 16.8755 17.5009 16.7751C17.6204 16.5744 17.7822 16.2852 17.9571 15.9224C18.306 15.199 18.7137 14.1706 18.942 12.9563C19.4028 10.5056 19.1257 7.29702 16.2144 4.38571C15.0667 3.23802 13.7552 2.38314 12.3999 1.74919L11.7855 1.46184L11.4633 2.05876C9.94099 4.87827 9.40939 7.40585 9.47923 9.44484C8.44899 9.39628 7.31144 9.53997 6.20154 9.80779C4.74266 10.1598 3.27042 10.7401 2.06161 11.4505L1.47124 11.7976L1.78974 12.4042L1.79014 12.405C1.79037 12.4055 1.79075 12.4061 1.79113 12.4068C1.79191 12.4083 1.79313 12.4104 1.7945 12.413C1.79728 12.4182 1.80109 12.4258 1.80621 12.4354C1.81651 12.4547 1.83157 12.4825 1.85086 12.5181C1.88947 12.5894 1.94549 12.6917 2.01636 12.8178C2.15795 13.0697 2.35968 13.4184 2.60058 13.8064C3.074 14.5691 3.72973 15.5345 4.39769 16.2024Z" fill="#87FE9A"/>
</svg>
